<svg width="16" height="15" viewBox="0 0 16 15" fill="none" xmlns="http://www.w3.org/2000/svg"><path fill-rule="evenodd" clip-rule="evenodd" d="M1.09992 6.30568C5.39488 4.38293 8.25885 3.11534 9.69185 2.5029C13.7834 0.754262 14.6335 0.450506 15.1877 0.440476C15.3095 0.43827 15.5821 0.469306 15.7586 0.616481C15.9076 0.740752 15.9486 0.908626 15.9683 1.02645C15.9879 1.14427 16.0123 1.41268 15.9929 1.6224C15.7712 4.01615 14.8118 9.82514 14.3237 12.5062C14.1172 13.6406 13.7105 14.021 13.3169 14.0582C12.4613 14.1391 11.8116 13.4772 10.9829 12.9191C9.68624 12.0457 8.9537 11.502 7.69503 10.6497C6.24043 9.6648 7.18338 9.12346 8.01236 8.23875C8.22931 8.00722 11.999 4.48405 12.0719 4.16444C12.0811 4.12447 12.0895 3.97547 12.0034 3.89679C11.9172 3.81812 11.7901 3.84502 11.6983 3.86642C11.5683 3.89675 9.4968 5.30361 5.48389 8.08699C4.89591 8.50186 4.36333 8.704 3.88616 8.6934C3.36012 8.68173 2.34822 8.38778 1.59598 8.13653C0.673328 7.82836 -0.0599784 7.66543 0.00387615 7.14205C0.0371355 6.86945 0.402482 6.59066 1.09992 6.30568Z" fill="white"/></svg>