<svg id="_Слой_1" xmlns="http://www.w3.org/2000/svg" viewBox="0 0 1056 412"><defs><style>.cls-1{fill:#fff}</style></defs><path style="fill:none;stroke:#fff;stroke-miterlimit:10;stroke-width:10px" d="M391.91 407H5V5h1046v402H665"/><path class="cls-1" d="M680.8 118.1h-49.6v-66h17.2v50.5h22.1V52.1h17.2v50.5h9.3v29.6h-16.2v-14.1zM708.6 52.1h45.8v15.5h-28.6v9.1h20.4v14.4h-20.4v11.5h29.8v15.5h-47v-66zM769.3 52.1h17.2v24.1h24.1V52.1h17.2v66h-17.2V91.7h-24.1v26.4h-17.2v-66zM858.2 67.6h-19.8V52.1h56.8v15.5h-19.8v50.5h-17.2V67.6zM905.8 52.1h25.9c14.5 0 25.5 8.7 25.5 22.7s-11 22.8-25.5 22.8H923v20.5h-17.2v-66zm26 30.5c4.8 0 7.9-3.1 7.9-7.8s-3.1-7.7-7.9-7.7H923v15.5h8.8zM218.91 238.1l-25.1-32.9v32.9h-17.2v-66h17.2V202l21.8-29.9h20l-22.7 31.4 26.4 34.6h-20.4zM240.71 205.1c0-19.4 15.8-34.2 35.5-34.2s35.7 14.8 35.7 34.2-16 34.2-35.7 34.2-35.5-14.7-35.5-34.2zm53.6 0c0-11-7.8-18.4-18-18.4s-18 7.4-18 18.4 7.4 18.4 18 18.4 18-7.2 18-18.4zM391.91 170.9v67.2h-17.2v-27.7l-13.7 16h-5.5l-13.6-15.9v27.6h-17.2v-67.2h5.5l28.1 34.3 28.1-34.3h5.5zM408.1 172.1h57.5v66h-17.2v-50.5h-23.1v50.5h-17.2v-66zM481.8 172.1h45.8v15.5H499v9.1h20.4v14.4H499v11.5h29.8v15.5h-47v-66zM556.7 187.6h-19.8v-15.5h56.8v15.5h-19.8v50.5h-17.2v-50.5zM604.3 172.1h45.8v15.5h-28.6v9.1h20.4v14.4h-20.4v11.5h29.8v15.5h-47v-66zM665 172.1h17.2v24.1h24.1v-24.1h17.2v66h-17.2v-26.4h-24.1v26.4H665v-66zM789.3 238.1h-49.6v-66h17.2v50.5H779v-50.5h17.2v50.5h9.3v29.6h-16.2v-14.1zM875.6 170.9v67.2h-17.2v-34.3l-35.8 35.5h-5.5v-67.2h17.2V206l35.8-35.1h5.5zM950.3 170.9v67.2h-17.2v-34.3l-35.8 35.5h-5.5v-67.2H909V206l35.8-35.1h5.5zM905.7 148v-.9h13.5v1.4c0 3.8 1.8 6 5.1 6s5.1-2.2 5.1-6v-1.4h13.5v.9c0 10.9-7.7 18.6-18.6 18.6s-18.6-7.7-18.6-18.6zM726 325.1c0-19.4 15.8-34.2 35.5-34.2s35.7 14.8 35.7 34.2-16 34.2-35.7 34.2-35.5-14.7-35.5-34.2zm53.61 0c0-11-7.8-18.4-18-18.4s-18 7.4-18 18.4 7.4 18.4 18 18.4 18-7.2 18-18.4zM859.6 358.1H810v-66h17.2v50.5h22.1v-50.5h17.2v50.5h9.3v29.6h-16.2v-14.1zM882.5 325.1c0-19.4 15.8-34.2 35.5-34.2s35.7 14.8 35.7 34.2-16 34.2-35.7 34.2-35.5-14.7-35.5-34.2zm53.6 0c0-11-7.8-18.4-18-18.4s-18 7.4-18 18.4 7.4 18.4 18 18.4 18-7.2 18-18.4z"/></svg>