<svg id="_Слой_1" width='267px' height='95px' xmlns="http://www.w3.org/2000/svg" viewBox="0 0 926.22 326.09"><defs><style>.cls-1{fill:#1d1d1b}.cls-3{fill:#fff}.cls-4{fill:#37b6b1}</style></defs><path class="cls-1" d="M365.14 88.91h-46.46V28.19h12.42v49.49h25.39V28.19h12.42v49.49H377v24.19h-11.87V88.9zM426.32 70.32H394.4c1.47 5.8 6.16 9.02 12.79 9.02 4.97 0 9.01-1.75 12.7-4.6l5.15 8.46c-5.15 4.32-11.22 6.81-18.21 6.81-14.44 0-24.93-10.4-24.93-23.83s10.4-23.83 23.83-23.83 21.44 9.38 21.44 21.16c0 2.58-.46 5.24-.83 6.81zm-31.92-8.74h20.7c-.09-5.8-4.6-9.2-9.84-9.2s-9.48 3.5-10.86 9.2zM437.08 43.37h12.33v16.65h16.83V43.37h12.33v45.54h-12.33V70.6h-16.83v18.31h-12.33V43.37zM500.29 53.86h-13.98V43.37h40.39v10.49h-14.08v35.05h-12.33V53.86zM582.26 66.09c0 13.71-9.2 23.92-22.08 23.92-5.61 0-10.4-2.02-13.62-5.52v20.98h-12.42v-62.1h11.41v5.7c3.13-4.32 8.37-6.72 14.63-6.72 12.88 0 22.08 10.03 22.08 23.73zm-12.61.09c0-7.73-5.24-12.6-11.78-12.6-5.7 0-11.5 3.77-11.5 12.51s5.7 12.6 11.5 12.6c6.44 0 11.78-4.78 11.78-12.51zM30.36 189.91l-18.03-24.1v24.1H0v-45.54h12.33v21.25l17.2-21.25h14.08l-17.2 20.79 18.67 24.75H30.36zM48.02 167.09c0-13.34 10.67-23.74 24.38-23.74s24.47 10.49 24.47 23.74-10.86 23.83-24.56 23.83-24.29-10.49-24.29-23.83zm36.16.09c0-7.18-5.06-12.51-11.78-12.51s-11.78 5.24-11.78 12.51 4.97 12.33 11.78 12.33 11.78-5.24 11.78-12.33zM106.81 143.36h4.05l21.34 23.83 21.53-23.83h3.96v46.55h-12.42v-21.89l-11.04 12.42h-4.14l-10.95-12.33v21.8h-12.33v-46.55zM170.57 144.37h40.94v45.54h-12.42v-35.05H182.9v35.05h-12.33v-45.54zM265.97 171.32h-31.92c1.47 5.8 6.16 9.02 12.79 9.02 4.97 0 9.02-1.75 12.7-4.6l5.15 8.46c-5.15 4.32-11.22 6.81-18.21 6.81-14.44 0-24.93-10.4-24.93-23.83s10.4-23.83 23.83-23.83 21.43 9.38 21.43 21.16c0 2.58-.46 5.24-.83 6.81zm-31.93-8.74h20.7c-.09-5.8-4.6-9.2-9.84-9.2s-9.48 3.5-10.86 9.2zM284.74 154.86h-13.98v-10.49h40.39v10.49h-14.08v35.05h-12.33v-35.05zM360.45 171.32h-31.92c1.47 5.8 6.16 9.02 12.79 9.02 4.97 0 9.02-1.75 12.7-4.6l5.15 8.46c-5.15 4.32-11.22 6.81-18.21 6.81-14.44 0-24.93-10.4-24.93-23.83s10.4-23.83 23.83-23.83 21.43 9.38 21.43 21.16c0 2.58-.46 5.24-.83 6.81zm-31.92-8.74h20.7c-.09-5.8-4.6-9.2-9.84-9.2s-9.48 3.5-10.86 9.2zM371.21 144.37h12.33v16.65h16.83v-16.65h12.33v45.54h-12.33V171.6h-16.83v18.31h-12.33v-45.54zM461.56 189.91h-35.97v-45.54h12.33v35.05h15.64v-35.05h12.33v35.05h7.54v23.46h-11.87v-12.97zM524.67 143.36v46.55h-12.42v-24.65l-25.39 25.76h-4.05v-46.64h12.33v24.84l25.48-25.85h4.05zM579.41 143.36v46.55h-12.42v-24.65l-25.39 25.76h-4.05v-46.64h12.33v24.84l25.48-25.85h4.05zm-35.79-21.99v-2.58h9.94v2.48c0 4.69 2.12 7.27 5.98 7.27s5.98-2.58 5.98-7.27v-2.48h9.84v2.58c0 9.48-6.44 16.01-15.82 16.01s-15.92-6.53-15.92-16.01zM380.04 260.55c0-17.85 14.35-31.46 32.2-31.46s32.38 13.62 32.38 31.46-14.54 31.46-32.38 31.46-32.2-13.62-32.2-31.46zm51.8 0c0-11.68-8.37-19.96-19.5-19.96s-19.5 8.28-19.5 19.96 8.19 19.96 19.5 19.96 19.5-8.19 19.5-19.96zM501.57 290.91h-46.46v-60.72h12.42v49.49h25.39v-49.49h12.42v49.49h8.09v24.2h-11.87v-12.97zM517.77 260.55c0-17.85 14.35-31.46 32.2-31.46s32.38 13.62 32.38 31.46-14.54 31.46-32.38 31.46-32.2-13.62-32.2-31.46zm51.79 0c0-11.68-8.37-19.96-19.5-19.96s-19.5 8.28-19.5 19.96 8.19 19.96 19.5 19.96 19.5-8.19 19.5-19.96z"/><path class="cls-4" d="M878.47 47.75C847.67 16.96 806.73 0 763.18 0s-84.49 16.96-115.29 47.75c-30.79 30.8-47.75 71.74-47.75 115.29s16.96 84.49 47.75 115.29c30.79 30.79 71.74 47.75 115.29 47.75s84.49-16.96 115.29-47.75c30.79-30.8 47.75-71.74 47.75-115.29s-16.96-84.5-47.75-115.29z"/><path d="m906.72 85.56-39.03-26.39-10.8 15.98-82.3-55.65-24.89 36.81 20.91 14.14-4.78.76s-34.02 4.59-42.09 12.42l-37.37-25.27-24.89 36.81 46.08 31.16c-6.13 5.13-14.62 15.34-14.61 32.57 0 3.69 3.71 9.27 8 14.49l-47.44-32.08-24.89 36.81 70.8 47.87-17.06 21.29-12.85-12.39-2.23 3.42-8.04-5.3 13.22 61.98 25.76 17.67c20.24 8.79 42.26 13.42 64.98 13.42.69 0 1.39 0 2.08-.01.23 0 .45 0 .68-.01.47 0 .93-.02 1.4-.03.27 0 .54-.02.8-.02.42-.01.85-.02 1.27-.04.28-.01.56-.02.85-.04.41-.02.82-.03 1.22-.05.29-.01.57-.03.86-.05.4-.02.81-.04 1.21-.07l.86-.06c.4-.03.8-.05 1.2-.08.29-.02.57-.05.86-.07.4-.03.8-.06 1.2-.1.28-.02.57-.05.85-.08.4-.04.81-.07 1.21-.12l.83-.09c.41-.04.81-.09 1.22-.13.27-.03.55-.06.82-.1l1.23-.15c.27-.03.53-.07.8-.1.41-.05.83-.11 1.24-.17.26-.04.52-.07.78-.11l1.26-.18.76-.12c.43-.07.86-.14 1.28-.21l.73-.12c.44-.07.87-.15 1.31-.23.23-.04.46-.08.7-.12.45-.08.89-.16 1.34-.25.22-.04.44-.08.66-.13l1.37-.27c.21-.04.41-.08.62-.13l1.41-.3.57-.12 1.47-.33.51-.12c.51-.12 1.02-.24 1.53-.37.15-.04.29-.07.44-.11.54-.13 1.08-.27 1.61-.41l.35-.09c.57-.15 1.15-.3 1.72-.46.08-.02.16-.04.23-.06.63-.17 1.25-.35 1.88-.53.02 0 .04-.01.07-.02 6.6-1.9 13.06-4.21 19.35-6.93 6.77-2.92 13.34-6.31 19.67-10.15.69-.42 1.37-.84 2.05-1.26.01 0 .03-.02.04-.03 2.06-1.29 4.1-2.64 6.11-4.03l.01-.01c.64-.44 1.27-.89 1.9-1.34.06-.05.13-.09.19-.14.61-.43 1.21-.87 1.81-1.32l.12-.09c1.3-.96 2.58-1.94 3.86-2.93l.12-.09c.56-.44 1.12-.89 1.68-1.34.13-.1.25-.21.38-.31.48-.39.96-.79 1.44-1.18.14-.11.27-.23.41-.34.52-.43 1.03-.87 1.54-1.31.08-.07.16-.13.24-.2.6-.52 1.19-1.04 1.79-1.56.07-.06.14-.12.2-.18.5-.44 1-.89 1.49-1.35.17-.16.35-.32.52-.48.4-.36.79-.73 1.18-1.1l.57-.54c.39-.37.78-.75 1.17-1.12.17-.16.34-.33.51-.49.55-.53 1.1-1.07 1.64-1.62.46-.46.92-.92 1.37-1.39.15-.15.3-.31.45-.46l.91-.94.52-.55c.27-.29.54-.57.81-.86.18-.2.37-.4.55-.59.26-.28.51-.56.77-.84.19-.2.37-.41.55-.61.25-.28.5-.56.75-.83.18-.21.37-.41.55-.62.25-.28.49-.56.74-.84.18-.21.36-.41.54-.62.25-.29.5-.58.74-.87l.51-.6c.26-.31.51-.62.77-.92.15-.19.31-.37.46-.56.3-.36.59-.72.88-1.09.11-.14.22-.27.33-.41.4-.5.8-1 1.19-1.5.1-.13.2-.25.3-.38.29-.38.59-.76.88-1.13.15-.19.29-.39.44-.58.24-.31.48-.63.71-.95.16-.22.32-.43.48-.65l.66-.9c.16-.22.32-.45.49-.67.21-.29.42-.59.63-.88.16-.23.32-.46.49-.69.21-.29.41-.59.61-.88.16-.23.32-.46.48-.7.2-.3.4-.59.6-.89.16-.23.31-.46.47-.69.2-.31.41-.62.61-.92.15-.22.29-.45.44-.67.21-.33.42-.66.64-.99.13-.21.26-.41.39-.62.27-.43.54-.86.81-1.3.09-.15.18-.3.28-.44.3-.49.6-.98.89-1.47.13-.21.25-.42.38-.63.2-.33.4-.67.59-1l.42-.72c.18-.31.36-.61.53-.92.14-.25.28-.5.43-.76.17-.3.34-.6.5-.9.14-.26.29-.52.43-.78.16-.3.32-.59.48-.89.14-.26.28-.53.42-.79.16-.3.31-.59.47-.89.14-.26.28-.53.41-.79.15-.3.31-.6.46-.9.13-.26.27-.53.4-.79.15-.3.3-.61.46-.92l.39-.78c.16-.33.31-.65.47-.98.12-.24.23-.48.35-.73.26-.55.52-1.1.77-1.66.11-.24.22-.48.33-.73.15-.33.3-.66.45-1 .12-.27.24-.55.36-.82l.39-.9c.12-.29.24-.57.36-.86.12-.29.25-.59.37-.88.12-.29.24-.59.36-.88.12-.29.24-.58.35-.87.12-.3.24-.6.36-.89.11-.29.23-.57.34-.86.12-.3.23-.6.35-.9.11-.29.22-.57.32-.86.11-.3.23-.61.34-.91.11-.29.21-.57.31-.86.11-.31.22-.61.33-.92.1-.29.2-.57.3-.86.11-.31.22-.62.32-.93.1-.28.19-.56.29-.85.21-.61.41-1.22.6-1.83.09-.27.18-.54.26-.82l.3-.97c.09-.28.17-.55.26-.83.1-.32.2-.65.29-.98.08-.28.17-.56.25-.83.1-.33.19-.65.28-.98l.24-.83.27-.99c.08-.28.15-.56.23-.83.09-.33.18-.66.26-1l.21-.83c.09-.34.17-.67.25-1.01.07-.27.13-.55.2-.82l.24-1.02.18-.8.24-1.05c.05-.25.11-.49.16-.74.29-1.35.57-2.7.83-4.06.04-.22.09-.44.13-.66.07-.37.13-.74.2-1.1.05-.25.09-.51.14-.76l.18-1.08c.04-.26.09-.53.13-.79.06-.36.11-.72.17-1.07l.12-.8c.05-.36.11-.72.16-1.07.04-.27.08-.54.11-.8l.15-1.08c.04-.27.07-.53.1-.8.05-.36.09-.73.14-1.09l.09-.79c.04-.37.09-.74.13-1.11.03-.25.05-.49.08-.74l.12-1.17c.02-.18.03-.37.05-.55.1-1.04.19-2.08.26-3.13.3-4.08.46-8.19.46-12.32 0-27.5-6.77-53.96-19.5-77.49z" style="fill:#0b948a"/><g id="cloud"><path class="cls-3" d="M753.29 75.86c7.59 0 14.89 2.28 21.1 6.59 6.08 4.22 10.72 10.07 13.42 16.92l2.33 5.92 6.32-.72a19.325 19.325 0 0 1 14.9 4.61c3.49 3.03 5.78 7.19 6.46 11.73l.53 3.57 2.98 2.04a30.234 30.234 0 0 1 13.16 24.94c0 2.68-.71 6-1.93 9.11-2.33 5.91-5.74 11.24-9.6 15.01-4.13 4.04-8.54 6.09-13.08 6.09h-90.15c-1.99 0-5.85-1.29-8.99-2.99-9.42-5.12-13.63-17.36-13.63-27.22 0-5.41 1.45-10.72 4.19-15.35 2.67-4.5 6.48-8.26 11.02-10.87l4.72-2.71-.6-5.41c-.16-1.43-.24-2.84-.24-4.18 0-9.91 3.86-19.22 10.86-26.23 7.01-7.01 16.32-10.86 26.23-10.86m0-8.28c-25.07 0-45.39 20.32-45.39 45.39 0 1.72.11 3.42.29 5.1-11.57 6.64-19.37 19.11-19.37 33.41 0 13.14 5.89 27.94 17.97 34.51 3.52 1.91 8.89 4 12.95 4h90.15c14.79 0 25.42-13.76 30.39-26.34 1.48-3.75 2.52-8.11 2.52-12.16 0-13.2-6.65-24.85-16.77-31.78-1.99-13.32-13.48-23.53-27.35-23.53-1.07 0-2.12.07-3.16.18-6.64-16.84-23.04-28.76-42.23-28.76z"/><path class="cls-3" d="M813.39 202.62h-10.44V184.6h-21.4v17.5h-10.44l20.88 21.4 21.4-20.88zM760.11 169.6h-10.44v20.36h-21.4v-19.84h-10.44l20.88-21.4 21.4 20.88z"/></g><path class="cls-3" d="M827.18 245.32c-.16-4.84-9.76-7.61-26.76-7.93-24.41-.46-50-18.65-60.03-19.13-39.88-1.92-59.03 10.61-63.75 13.93-1.55 1.09-3.01 2.25-4.44 3.45l16.24 38.88c.13-.07.26-.15.38-.22 5.12-2.8 10.64-4.11 16.47-4.03 5.92.08 11.86 1.14 17.62 2.45 6.44 1.47 12.81 3.25 19.19 4.93 6.35 1.67 12.75 3.29 19.23 4.38 6.28 1.05 12.99 1.68 19.26.26.06-.01.12-.02.18-.02 5.95-3.56 10.89-8.46 15.78-13.31 2.44-2.42 4.88-4.85 7.46-7.12 1.98-1.75 5.94-3.66 8.21-5.08-6.26-.01-14.48-1.2-20.68-2.01l-4-.41c-.2-.03-.38-.04-.48-.08-1.07-.1-2.14-.18-3.21-.24l-2.68-.13s-.39.03-.42 0c-1.45-.03-2.89-.02-4.34.03l-1.53.08c-1.33.09-2.67.22-3.99.41-6 .85-11.71 2.69-17.15 5.36-.94.46-1.72-.87-.82-1.4 20.34-12.15 47.04-3.91 52.08-3.47 5.07.45 10.42.57 15.3-1.12 3.8-1.32 7.03-3.14 6.86-8.48zM686.58 275.8l-16.24-38.88-.85-2.03-6.4 2.68 17.89 42.79 6.41-2.67-.81-1.89z"/><path class="cls-3" d="M855.94 222.98c-1.75 1.9-3.83 3.55-5.74 5.28-2.3 2.09-4.66 4.11-7.04 6.1-4.43 3.7-8.95 7.28-13.4 10.96-.88-2.23-2.76-4.14-4.73-5.44-2.98-1.98-6.59-3-10.21-3.53 2.23-2.9 16.02-9.83 19.25-12.34 3.18-2.47 6.64-4.71 10.77-5.01 3.85-.28 8.59.83 11.11 3.98z"/><path class="cls-3" d="M851.15 215.15c-.3.95-.99 1.81-1.56 2.62a24.15 24.15 0 0 0-3.27-.41c-4.56-.26-8.63 1.92-12.18 4.55-3.56 2.64-18.72 10.55-21.12 14.17 0 .01-.01.02-.02.03-1.19-.12-2.37-.2-3.53-.26-.39-.02-.79-.03-1.18-.04 2.69-2.93 27.04-20.29 31.2-21.83 3.69-1.36 8.67-1.81 11.65 1.16zM837.52 213.01c-3.19 1.42-25.66 17.87-31.36 22.79-2.99.02-5.97.22-8.95.44 2.65-2.65 24.79-20.86 28.72-22.38 3.6-1.4 9.45-2.92 11.59-.86zM797.67 233.01h.14v-.12s-.09.08-.14.12zM681.31 285.89l-21-50.26-1.1-2.62-33.48 13.87c6.4 10.09 13.96 19.54 22.61 28.19 7.47 7.47 15.54 14.12 24.09 19.92l9.91-6.67-1.04-2.44z"/><circle class="cls-3" cx="642.09" cy="160.69" r="22.22"/><circle class="cls-3" cx="675.24" cy="77.7" r="22.22"/><circle class="cls-3" cx="760.11" cy="36.96" r="22.22"/><circle class="cls-3" cx="855.94" cy="77.7" r="22.22"/><circle class="cls-3" cx="884.85" cy="160.69" r="22.22" transform="rotate(-80.78 884.875 160.671)"/><path class="cls-4" d="M758.26 47.14h3.71v2.87h-3.71z"/><path class="cls-4" d="M765.82 51.67H754.4v-1.75c0-.23.19-.41.41-.41h10.59c.23 0 .41.19.41.41v1.75zM743.96 25.6h32.3v22.37h-32.3z"/><path class="cls-3" d="M747.51 27.98h24.9v16.05h-24.9zM758.92 46.3h2.38v.44h-2.38z"/><path class="cls-4" d="M869.38 80.59c.06-.29.11-.58.14-.87.02-.13.03-.26.05-.39v-.03c.02-.14.03-.29.04-.43l2.73-.89v-.14l-.07-.97-.06-.96v-.14l-2.82-.53c-.11-.57-.27-1.13-.46-1.69l2.2-1.88-.92-1.87h-.04l-.03-.05-2.8.58c-.16-.25-.34-.49-.52-.73-.04-.06-.09-.11-.13-.16-.05-.06-.09-.12-.14-.18-.08-.1-.16-.19-.24-.29 0-.01-.02-.02-.03-.03l1.32-2.58-1.56-1.38-.04.02-.1-.09-2.37 1.62s-.09-.06-.14-.09c-.07-.05-.15-.1-.22-.14 0 0-.02-.01-.03-.02-.37-.23-.74-.44-1.13-.62l.21-2.86-.06-.02-.98-.33-.93-.32-.07-.02-1.57 2.4c-.29-.06-.58-.1-.87-.14-.14-.02-.27-.03-.41-.05h-.01c-.14-.01-.29-.03-.43-.04l-.89-2.73h-.14l-.98.07-.96.06-.14.02-.53 2.82c-.57.11-1.13.27-1.69.46l-1.88-2.2-1.87.92v.04l-.05.03.58 2.8c-.25.16-.49.34-.72.52-.06.04-.11.09-.17.14-.06.05-.12.09-.17.14-.1.08-.19.16-.29.24-.01 0-.02.02-.03.03l-2.58-1.32-1.38 1.56.02.04-.09.1 1.62 2.37c-.03.05-.07.1-.1.15-.05.07-.09.14-.13.21 0 .02-.02.03-.03.05-.22.36-.43.73-.61 1.11l-2.86-.21-.02.07-.33.97-.32.94-.02.07 2.4 1.57c-.06.29-.11.58-.14.88-.02.11-.03.23-.04.34v.08c-.01.14-.03.29-.04.43l-2.73.89v.14l.07.97.06.97v.14l2.82.53c.11.57.27 1.13.46 1.69l-2.2 1.88.92 1.87h.04l.03.05 2.8-.58c.17.25.34.49.52.73l.12.15c.05.06.1.13.15.19.08.09.15.19.23.28.01.01.02.03.04.04l-1.16 2.26.09.13-.13.27.85.74.04.06v-.02l.68.59 2.37-1.62c.49.32.99.61 1.52.87l-.21 2.86 1.97.67 1.58-2.39c.63.13 1.27.21 1.91.25l.8 2.38-.03.34h.14l.97-.07.96-.06.14-.02.53-2.82c.57-.11 1.13-.27 1.69-.46l1.65 1.93.08-.02.2.23 1.07-.53.07-.02-.01-.01.74-.37-.58-2.8c.48-.32.95-.68 1.39-1.07l2.58 1.32 1.38-1.56-1.62-2.4c.37-.54.69-1.1.97-1.67l2.68.19.15.08.02-.06.33-.97.32-.94.02-.07-2.4-1.57zm-7.86 8.54v-.01c-1.63.78-3.64 1.33-5.57 1.33-3.16 0-6.04-1.17-8.24-3.1h.01c-1.34-1.21-2.61-2.86-3.35-4.65-.16-.39-.3-.79-.42-1.19 0-.03-.02-.06-.02-.09-.05-.16-.09-.32-.13-.49-.02-.07-.03-.15-.05-.22-.03-.12-.05-.24-.08-.35-.02-.12-.05-.24-.07-.37-.01-.07-.02-.14-.04-.21-.02-.17-.05-.34-.06-.51v-.08c-.04-.41-.06-.84-.06-1.26 0-.62.05-1.24.14-1.83 0-.03 0-.05.01-.08.01-.07.03-.15.04-.22.26-1.5.79-2.93 1.56-4.24.01-.02.03-.05.04-.07l.21-.33c.04-.07.08-.14.13-.2l.13-.19c.08-.11.15-.22.23-.33.01-.02.03-.04.04-.05.92-1.22 2.06-2.26 3.35-3.07.06-.03.11-.07.17-.11.03-.02.06-.03.08-.05.52-.31 1.06-.58 1.63-.82.39-.16.79-.3 1.19-.42.03 0 .05-.02.08-.02.16-.05.33-.09.49-.13.07-.02.14-.03.22-.05.12-.03.24-.05.36-.08l.36-.06c.07-.01.14-.02.22-.04.17-.03.34-.05.51-.06h.08a12.972 12.972 0 0 1 3.09.07c.03 0 .06 0 .09.01.07.01.14.03.21.04 1.5.26 2.94.79 4.24 1.56.02.01.05.03.07.04l.33.21c.07.04.14.08.2.13l.19.13c.11.08.22.15.33.23.02.01.04.03.05.04 1.22.92 2.26 2.06 3.08 3.35.03.05.07.11.1.16.02.03.03.06.05.09.31.52.58 1.06.81 1.63.16.39.3.79.42 1.19 0 .03.02.06.02.08.05.16.09.33.13.49.02.07.03.15.05.22.03.12.05.24.08.36.02.12.05.24.07.36.01.07.02.14.04.22.02.17.05.34.06.51v.08c.04.41.06.83.06 1.26 0 .3-.01.62-.04.94-.33 4.29-2.86 8.25-6.91 10.27z"/><path class="cls-4" d="M862.94 79.09c.03-.15.05-.3.07-.46 0-.07.02-.14.02-.21v-.02c0-.08.01-.15.02-.23l1.42-.46v-.07l-.04-.51-.03-.5v-.07l-1.47-.27c-.06-.3-.14-.59-.24-.88l1.15-.98-.48-.97h-.02l-.01-.02-1.46.3c-.09-.13-.18-.25-.27-.38-.02-.03-.05-.06-.07-.09-.02-.03-.05-.06-.07-.09-.04-.05-.08-.1-.13-.15l-.02-.02.69-1.34-.81-.72h-.02l-.05-.03-1.23.84s-.05-.03-.07-.05c-.04-.02-.08-.05-.12-.07h-.01c-.19-.12-.39-.23-.59-.32l.11-1.49h-.03v-.01l-.51-.17-.48-.17h-.03l-.82 1.25c-.15-.03-.3-.05-.45-.07-.07 0-.14-.02-.21-.02-.08 0-.15-.01-.23-.02l-.46-1.42h-.07l-.51.04-.5.03h-.07l-.27 1.47c-.3.06-.59.14-.88.24l-.98-1.15-.97.48v.02l-.02.01.3 1.46c-.13.09-.25.18-.38.27-.03.02-.06.05-.09.07-.03.02-.06.05-.09.07-.05.04-.1.08-.15.13l-.02.02-1.34-.69-.72.81v.02l-.03.05.84 1.23s-.03.05-.05.08c-.02.04-.05.07-.07.11 0 0 0 .02-.01.02-.12.19-.22.38-.32.58l-1.49-.11v.03h-.01l-.17.51-.17.49-.01.04 1.25.82c-.03.15-.05.3-.07.46 0 .06-.01.12-.02.18v.04c0 .07-.01.15-.02.22l-1.42.46v.07l.04.5.03.51v.07l1.47.27c.06.3.14.59.24.88l-1.15.98.48.97h.02l.01.02 1.46-.3c.09.13.18.25.27.38.02.03.04.05.06.08.03.03.05.07.08.1.04.05.08.1.12.14l.02.02-.6 1.18.05.07-.07.14.44.38.02.03.35.31 1.23-.84c.25.17.52.32.79.45l-.11 1.49 1.03.35.82-1.25c.33.07.66.11.99.13l.42 1.24v.18h.06l.51-.03.5-.03h.07l.27-1.47c.3-.06.59-.14.88-.24l.86 1.01h.04l.11.11.56-.28h.04v-.01l.38-.19-.3-1.46c.25-.17.49-.35.72-.55l1.34.69.72-.81-.85-1.25c.19-.28.36-.57.5-.87l1.4.1.08.04v-.03h.01l.17-.51.17-.49.01-.04-1.25-.82zm-4.09 4.45c-.85.41-1.9.69-2.9.69a6.5 6.5 0 0 1-4.29-1.61c-.7-.63-1.36-1.49-1.74-2.42-.08-.2-.16-.41-.22-.62 0-.01 0-.03-.01-.05-.02-.08-.05-.17-.07-.25 0-.04-.02-.08-.03-.12-.01-.06-.03-.12-.04-.18l-.03-.19c0-.04-.01-.07-.02-.11l-.03-.27v-.04c-.02-.22-.03-.43-.03-.66 0-.32.02-.64.07-.96v-.04c0-.04.01-.08.02-.11.14-.78.41-1.53.81-2.21 0-.01.01-.02.02-.04.03-.06.07-.11.11-.17.02-.04.04-.07.07-.11l.07-.1c.04-.06.08-.11.12-.17 0 0 .01-.02.02-.03a6.63 6.63 0 0 1 1.74-1.6c.03-.02.06-.04.09-.05.01 0 .03-.02.04-.03.27-.16.55-.3.85-.42.2-.08.41-.16.62-.22.01 0 .03 0 .04-.01.09-.02.17-.05.26-.07.04 0 .08-.02.11-.03.06-.01.12-.03.19-.04l.19-.03c.04 0 .08-.01.11-.02l.27-.03h.04c.22-.02.43-.03.66-.03.32 0 .64.02.95.07h.04c.04 0 .07.01.11.02.78.14 1.53.41 2.21.81.01 0 .02.01.04.02.06.03.11.07.17.11.03.02.07.04.1.07l.1.07c.06.04.11.08.17.12a6.518 6.518 0 0 1 1.68 1.85c0 .01.02.03.03.05.16.27.3.55.42.85.08.2.16.41.22.62 0 .01 0 .03.01.04.02.08.05.17.07.26 0 .04.02.08.03.11.01.06.03.12.04.19l.03.19c0 .04.01.07.02.11l.03.27v.04c.02.22.03.43.03.66 0 .15 0 .32-.02.49a6.506 6.506 0 0 1-3.6 5.34zM651.05 164.15c-1.52 0-2.83.89-3.45 2.17l-8.23-1.11a5.417 5.417 0 0 0-1.76-3.77l4.65-6.7c.55.23 1.14.36 1.77.36 2.51 0 4.54-2.03 4.54-4.52s-2.04-4.52-4.54-4.52-4.54 2.03-4.54 4.52c0 1.07.37 2.05 1 2.82l-4.79 6.89c-.57-.2-1.17-.31-1.81-.31-3.02 0-5.49 2.45-5.49 5.46s2.46 5.46 5.49 5.46c2.31 0 4.29-1.43 5.1-3.44l8.31 1.12a3.825 3.825 0 0 0 3.76 3.15c2.1 0 3.81-1.7 3.81-3.79s-1.71-3.79-3.81-3.79zM684.31 61.54h-12.28v35.08a19.218 19.218 0 0 0 5.05.18v-3.97h4.24v3.04c1.97-.68 3.79-1.67 5.41-2.93V61.55h-2.41zm-7.59 25.09h-2.49v-6.11h2.49v6.11zm0-7.81h-2.49v-6.11h2.49v6.11zm0-7.56h-2.49v-6.11h2.49v6.11zm3.9 15.37h-2.49v-6.11h2.49v6.11zm0-7.81h-2.49v-6.11h2.49v6.11zm0-7.56h-2.49v-6.11h2.49v6.11zm3.91 15.37h-2.49v-6.11h2.49v6.11zm0-7.81h-2.49v-6.11h2.49v6.11zm0-7.56h-2.49v-6.11h2.49v6.11zM658.82 68.14v19.25c.69 1.21 1.52 2.34 2.45 3.36v-.19h3.82v3.39a18.65 18.65 0 0 0 6.27 2.54v-2.11h-3.16v-3.82h3.16V87.9h-3.16v-3.82h3.16v-2.99h-3.16v-3.82h3.16v-2.82h-3.16v-3.82h3.16v-2.49h-12.54zm2.46 2.49h3.82v3.82h-3.82v-3.82zm0 6.64h3.82v3.82h-3.82v-3.82zm0 6.82h3.82v3.82h-3.82v-3.82z"/><path class="cls-3" d="M873.29 154.81h23.9v15.67h-23.9z"/><path class="cls-4" d="M870.02 153.4h30.63v-2.68L885 142.39l-14.98 8.27v2.74z"/><path class="cls-4" d="M872.83 152.39h-1.57l1.38-.73 12.36-6.82 12.8 6.82 1.41.73h-26.38z"/><path class="cls-3" d="m872.83 152 12.17-6.72 12.62 6.72h-24.79z"/><path class="cls-4" d="M869.71 153.76h31.41v1.76h-31.41z"/><path class="cls-4" d="M869.33 152.84h32.18v1.8h-32.18z"/><path class="cls-3" d="M869.33 152.84h32.18v.56h-32.18z"/><path class="cls-4" d="M869.71 169.81h31.41v1.76h-31.41z"/><path class="cls-4" d="M869.33 170.69h32.18v1.8h-32.18z"/><path class="cls-4" d="M868.85 171.56h33.13v1.85h-33.13zM872.68 155.65h1.69v1.23h-1.69z"/><path class="cls-4" d="M875.41 167.67h.01l-.55-.3c.09-.01.16-.07.16-.15 0-.07-.05-.12-.13-.14.08-.02.13-.08.13-.14 0-.08-.07-.14-.17-.15l-.24-10.99h.29v-.49h-2.76v.49h.22l-.17 10.89v.1s-.09.04-.11.07v.12c.02.03.06.06.11.07-.05.01-.08.04-.11.07V167.24c.02.05.08.09.15.09l-.56.3h.01-.03v1.65h3.78v-1.64h-.03zm-1.86-11.25h.03-.03zm.58 0h-.35v-.62h.35v.62z"/><path class="cls-4" d="M872.76 155.81h.35v.62h-.35zM870.89 168.12h5.26v1.94h-5.26zM880.49 155.65h1.69v1.23h-1.69z"/><path class="cls-4" d="M883.22 167.67h.01l-.55-.3c.09-.01.16-.07.16-.15 0-.07-.05-.12-.13-.14.08-.02.13-.08.13-.14 0-.08-.07-.14-.17-.15l-.24-10.99h.29v-.49h-2.75v.49h.22l-.17 10.89v.1s-.09.04-.11.07v.12c.02.03.06.06.11.07-.05.01-.08.04-.11.07V167.24c.02.05.08.09.15.09l-.56.3h.01-.03v1.65h3.78v-1.64h-.03zm-1.87-11.25h.03-.03zm.58 0h-.35v-.62h.35v.62z"/><path class="cls-4" d="M880.56 155.81h.35v.62h-.35zM878.69 168.12h5.26v1.94h-5.26zM888.37 155.65h1.69v1.23h-1.69z"/><path class="cls-4" d="M891.1 167.67h.01l-.55-.3c.09-.01.16-.07.16-.15 0-.07-.05-.12-.13-.14.08-.02.13-.08.13-.14 0-.08-.07-.14-.17-.15l-.24-10.99h.29v-.49h-2.75v.49h.22l-.17 10.89v.1s-.09.04-.11.07v.12c.02.03.06.06.11.07-.05.01-.08.04-.11.07V167.24c.02.05.08.09.15.09l-.56.3h.01-.03v1.65h3.78v-1.64h-.03zm-1.86-11.25h.03-.03zm.58 0h-.35v-.62h.35v.62z"/><path class="cls-4" d="M888.45 155.81h.35v.62h-.35zM886.58 168.12h5.26v1.94h-5.26zM896.18 155.65h1.69v1.23h-1.69z"/><path class="cls-4" d="M898.91 167.67h.01l-.55-.3c.09-.01.16-.07.16-.15 0-.07-.05-.12-.13-.14.08-.02.13-.08.13-.14 0-.08-.07-.14-.17-.15l-.24-10.99h.29v-.49h-2.75v.49h.22l-.17 10.89v.1s-.09.04-.11.07v.12c.02.03.06.06.11.07-.05.01-.08.04-.11.07V167.24c.02.05.08.09.15.09l-.56.3h.01-.03v1.65h3.78v-1.64h-.03zm-1.87-11.25h.03-.03zm.58 0h-.35v-.62h.35v.62z"/><path class="cls-4" d="M896.25 155.81h.35v.62h-.35zM894.38 168.12h5.26v1.94h-5.26zM876.12 157.68h2.49v3.45h-2.49z"/><path class="cls-4" d="M876.35 157.94h2.02v2.93h-2.02zM876.12 162.65h2.49v3.45h-2.49z"/><path class="cls-4" d="M876.35 162.91h2.02v2.93h-2.02zM883.99 157.68h2.49v3.45h-2.49z"/><path class="cls-4" d="M884.23 157.94h2.02v2.93h-2.02zM883.99 162.65h2.49v3.45h-2.49z"/><path class="cls-4" d="M884.23 162.91h2.02v2.93h-2.02zM891.87 157.68h2.49v3.45h-2.49z"/><path class="cls-4" d="M892.1 157.94h2.02v2.93h-2.02zM891.87 162.65h2.49v3.45h-2.49z"/><path class="cls-4" d="M892.1 162.91h2.02v2.93h-2.02z"/></svg>